<svg xmlns="http://www.w3.org/2000/svg" width="24" height="24" viewBox="0 0 24 24"><defs><style>.a{fill:none;}.b{fill:#888;}</style></defs><path class="a" d="M0,0H24V24H0Z"/><circle class="b" cx="1.5" cy="1.5" r="1.5" transform="translate(14 8)"/><circle class="b" cx="1.5" cy="1.5" r="1.5" transform="translate(7 8)"/><path class="b" d="M11.99,2A10,10,0,1,0,22,12,10,10,0,0,0,11.99,2ZM12,20a8,8,0,1,1,8-8A8,8,0,0,1,12,20Zm4.41-6.11a.745.745,0,0,0-1.03.24,3.984,3.984,0,0,1-6.76-.01.748.748,0,1,0-1.27.79,5.475,5.475,0,0,0,9.3.01.747.747,0,0,0-.24-1.03Z"/></svg>