<svg xmlns="http://www.w3.org/2000/svg" width="24" height="24" viewBox="0 0 24 24"><defs><style>.a{fill:none;}.b{fill:#888;}</style></defs><path class="a" d="M0,0H24V24H0Z"/><path class="b" d="M12,13.5a5.489,5.489,0,0,0-4.75,2.75.506.506,0,0,0,.44.75h8.62a.506.506,0,0,0,.44-.75A5.489,5.489,0,0,0,12,13.5ZM8.35,11.47l.53-.53.53.53a.75.75,0,0,0,1.06-1.06l-.53-.53.53-.53A.75.75,0,1,0,9.41,8.29l-.53.53-.53-.53A.75.75,0,1,0,7.29,9.35l.53.53-.53.53a.75.75,0,1,0,1.06,1.06ZM11.99,2A10,10,0,1,0,22,12,9.989,9.989,0,0,0,11.99,2ZM12,20a8,8,0,1,1,8-8A8,8,0,0,1,12,20ZM15.65,8.29l-.53.53-.53-.53a.75.75,0,1,0-1.06,1.06l.53.53-.53.53a.75.75,0,1,0,1.06,1.06l.53-.53.53.53a.75.75,0,1,0,1.06-1.06l-.53-.53.53-.53a.75.75,0,0,0-1.06-1.06Z"/></svg>